<?xml version="1.0" encoding="utf-8"?>
<!-- Generator: Adobe Illustrator 19.2.1, SVG Export Plug-In . SVG Version: 6.00 Build 0)  -->
<svg version="1.1" xmlns="http://www.w3.org/2000/svg" xmlns:xlink="http://www.w3.org/1999/xlink" x="0px" y="0px"
	 viewBox="0 0 54 38.4" style="enable-background:new 0 0 54 38.4;" xml:space="preserve">
<g id="STOCKHOLM">
	<g>
		<path d="M4,34.2c0.4,0.4,1,0.7,1.6,0.7c0.8,0,1.2-0.4,1.2-1c0-0.6-0.4-0.8-1-1l-0.8-0.4c-0.5-0.2-1.2-0.7-1.2-1.5
			c0-0.9,0.8-1.6,1.9-1.6c0.7,0,1.3,0.3,1.7,0.7l-0.4,0.5c-0.4-0.3-0.8-0.6-1.3-0.6c-0.7,0-1.1,0.3-1.1,0.9c0,0.6,0.5,0.8,1,1
			l0.8,0.4c0.7,0.3,1.2,0.7,1.2,1.6c0,0.9-0.8,1.7-2,1.7c-0.8,0-1.5-0.3-2.1-0.9L4,34.2z"/>
		<path d="M9.8,30.2H8v-0.6h4.3v0.6h-1.8v5.3H9.8V30.2z"/>
		<path d="M12.8,32.5c0-1.9,1-3,2.5-3c1.5,0,2.5,1.2,2.5,3c0,1.9-1,3.1-2.5,3.1C13.9,35.6,12.8,34.4,12.8,32.5z M17.1,32.5
			c0-1.5-0.7-2.4-1.7-2.4c-1.1,0-1.8,0.9-1.8,2.4c0,1.5,0.7,2.4,1.8,2.4C16.4,34.9,17.1,34,17.1,32.5z"/>
		<path d="M21.4,29.5c0.7,0,1.3,0.3,1.6,0.7l-0.4,0.5c-0.3-0.3-0.7-0.5-1.2-0.5c-1.1,0-1.9,0.9-1.9,2.4c0,1.5,0.7,2.4,1.8,2.4
			c0.6,0,1-0.2,1.4-0.7l0.4,0.5c-0.5,0.5-1,0.9-1.8,0.9c-1.5,0-2.6-1.1-2.6-3.1C18.7,30.6,19.9,29.5,21.4,29.5z"/>
		<path d="M24.2,29.6h0.8v3h0l2.5-3h0.9l-1.9,2.3l2.1,3.7h-0.8l-1.8-3.1l-1,1.2v1.9h-0.8V29.6z"/>
		<path d="M29.3,29.6h0.8V32h2.7v-2.5h0.7v5.9h-0.7v-2.8h-2.7v2.8h-0.8V29.6z"/>
		<path d="M34.8,32.5c0-1.9,1-3,2.5-3c1.5,0,2.5,1.2,2.5,3c0,1.9-1,3.1-2.5,3.1C35.9,35.6,34.8,34.4,34.8,32.5z M39.1,32.5
			c0-1.5-0.7-2.4-1.7-2.4c-1.1,0-1.8,0.9-1.8,2.4c0,1.5,0.7,2.4,1.8,2.4C38.4,34.9,39.1,34,39.1,32.5z"/>
		<path d="M41.1,29.6h0.8v5.3h2.6v0.6h-3.3V29.6z"/>
		<path d="M45.4,29.6h0.9l1.1,3.2l0.4,1.2h0l0.4-1.2l1.1-3.2h0.9v5.9h-0.7v-3.3c0-0.5,0.1-1.2,0.1-1.7h0l-0.5,1.3l-1.1,3.1h-0.4
			l-1.1-3.1l-0.5-1.3h0c0,0.5,0.1,1.2,0.1,1.7v3.3h-0.7V29.6z"/>
	</g>
</g>
<g id="clou">
	<g>
		<path d="M8.4,8.8c1.9,0,3.3,0.8,4.3,1.7l-1.2,1.6c-0.9-0.8-1.8-1.3-2.9-1.3c-2.6,0-4.6,2.3-4.6,5.6c0,3.3,1.8,5.6,4.5,5.6
			c1.4,0,2.5-0.7,3.4-1.5l1.1,1.6c-1.3,1.2-3,1.9-4.7,1.9c-3.9,0-6.8-2.8-6.8-7.6C1.4,11.6,4.7,8.8,8.4,8.8z"/>
		<path d="M16.2,2.4h2.5V21c0,0.8,0.3,1.1,0.7,1.1c0.1,0,0.3,0,0.5-0.1l0.3,1.9c-0.3,0.1-0.7,0.2-1.4,0.2c-1.9,0-2.6-1.2-2.6-3.3
			V2.4z"/>
		<path d="M29.5,8.8c3.6,0,6.8,2.8,6.8,7.7c0,4.8-3.2,7.6-6.8,7.6c-3.6,0-6.7-2.8-6.7-7.6C22.7,11.6,25.9,8.8,29.5,8.8z M29.5,22
			c2.5,0,4.2-2.3,4.2-5.6c0-3.4-1.7-5.6-4.2-5.6c-2.5,0-4.2,2.3-4.2,5.6C25.3,19.8,27,22,29.5,22z"/>
		<path d="M39.9,9.1h2.5V18c0,2.7,0.8,3.9,2.7,3.9c1.5,0,2.5-0.8,3.9-2.5V9.1h2.5v14.6h-2l-0.2-2.3h-0.1c-1.3,1.6-2.8,2.6-4.8,2.6
			c-3.1,0-4.5-2-4.5-5.7V9.1z"/>
	</g>
</g>
</svg>
